<?xml version="1.0" encoding="UTF-8"?> <svg xmlns="http://www.w3.org/2000/svg" width="734" height="734" viewBox="0 0 734 734" fill="none"> <circle opacity="0.7" cx="367.063" cy="366.866" r="366.661" fill="#1398BE"></circle> <path d="M77.406 177.707C85.827 198.406 99.9275 213.983 119.084 225.433C138.629 237.111 161.142 241.8 181.146 252.145C205.028 264.48 219.347 285.909 221.968 312.62C224.647 339.164 216.865 364.431 211.309 389.999C205.871 414.956 204.081 442.569 220.35 464.017C221.395 465.309 223.195 463.601 222.204 462.42C204.67 439.511 209.101 409.641 215.386 383.579C220.914 360.796 226.608 338.07 224.624 314.374C222.738 292.016 213.257 271.417 195.014 257.859C177.488 244.921 155.813 239.962 136.179 231.515C110.669 220.389 90.3492 202.854 79.7546 176.84C79.1029 175.218 76.8633 176.309 77.406 177.707Z" fill="#BCE2FF"></path> <path d="M284.671 439.055C280.832 416.955 267.946 397.046 248.908 384.983C227.821 371.563 201.601 369.788 179.777 357.697C157.732 345.437 141.34 325.157 139.434 299.345C138.404 285.853 142.372 273.805 147.457 261.49C152.197 250.175 156.384 238.575 159.293 226.628C165.409 200.787 165.05 170.757 150.022 147.873C149.089 146.526 146.85 147.617 147.783 148.964C162.865 171.96 162.945 201.987 156.55 227.825C153.53 239.827 149.177 251.369 144.491 262.797C140.149 273.225 136.979 283.498 136.974 294.863C137.094 315.587 146.698 335.017 162.269 348.492C181.098 364.674 204.329 369.984 227.201 377.684C255.623 387.392 277.123 409.34 282.383 439.477C282.477 441.093 284.99 440.562 284.671 439.055Z" fill="#BCE2FF"></path> <path d="M228.219 457.135C242.673 449.262 257.342 442.116 272.505 435.699C276.198 434.177 273.47 428.578 269.778 430.1C254.615 436.517 239.946 443.663 225.492 451.536C221.963 453.393 224.579 459.047 228.219 457.135Z" fill="#BCE2FF"></path> <path d="M222.606 445.044C238.281 437.685 253.791 429.99 269.083 421.848C272.612 419.99 269.885 414.391 266.356 416.249C251.009 424.279 235.553 432.086 219.879 439.445C216.129 441.133 218.857 446.732 222.606 445.044Z" fill="#BCE2FF"></path> <path d="M218.441 433.08C232.829 426.209 247.053 419.002 261.222 411.684C264.751 409.826 262.024 404.227 258.495 406.085C244.38 413.515 230.101 420.61 215.713 427.481C212.13 429.226 214.858 434.825 218.441 433.08Z" fill="#BCE2FF"></path> <path d="M219.979 418.889C230.844 413.319 241.597 407.804 252.462 402.234C255.99 400.376 253.263 394.777 249.734 396.635C238.869 402.205 228.116 407.72 217.252 413.291C213.668 415.036 216.284 420.69 219.979 418.889Z" fill="#BCE2FF"></path> <path d="M221.069 405.197C227.288 401.752 233.619 398.252 239.838 394.806C243.312 392.837 240.585 387.238 237.11 389.207C230.891 392.653 224.56 396.153 218.341 399.598C214.867 401.568 217.594 407.167 221.069 405.197Z" fill="#BCE2FF"></path> <path d="M222.596 392.121C225.117 390.755 227.638 389.388 230.271 387.967C233.8 386.109 231.072 380.51 227.544 382.368C225.023 383.734 222.502 385.101 219.869 386.522C216.34 388.38 219.068 393.979 222.596 392.121Z" fill="#BCE2FF"></path> <path d="M207.904 363.67C209.635 363.242 211.315 362.424 212.61 361.1C213.681 359.886 214.146 357.996 212.823 356.701C211.72 355.576 209.607 355.22 208.424 356.489C208.255 356.71 208.031 356.819 207.861 357.04C207.749 357.095 207.58 357.316 207.468 357.37C207.804 357.207 207.916 357.152 207.692 357.261C207.468 357.37 207.244 357.479 207.02 357.589C206.908 357.643 206.796 357.698 206.684 357.752C207.02 357.589 207.132 357.534 206.796 357.698C205.177 358.071 203.879 359.673 204.252 361.292C204.683 362.745 206.285 364.043 207.904 363.67Z" fill="#BCE2FF"></path> <path d="M194.475 358.573C201.085 355.076 207.583 351.634 214.192 348.137C217.721 346.279 214.993 340.68 211.465 342.538C204.855 346.035 198.357 349.477 191.748 352.974C188.219 354.832 190.835 360.486 194.475 358.573Z" fill="#BCE2FF"></path> <path d="M183.008 352.382C193.712 346.198 204.467 340.404 215.608 335.115C219.191 333.37 216.463 327.771 212.88 329.516C201.794 334.917 190.872 340.654 180.28 346.784C176.806 348.753 179.533 354.352 183.008 352.382Z" fill="#BCE2FF"></path> <path d="M171.551 345.078C185.672 337.091 200.014 329.272 214.411 321.566C217.939 319.709 215.212 314.11 211.683 315.967C197.287 323.674 183.057 331.437 168.824 339.479C165.35 341.449 168.077 347.048 171.551 345.078Z" fill="#BCE2FF"></path> <path d="M160.959 334.997C178.6 325.987 196.129 317.032 213.825 308.134C217.353 306.277 214.626 300.678 211.097 302.535C193.456 311.545 175.927 320.5 158.232 329.398C154.591 331.31 157.318 336.909 160.959 334.997Z" fill="#BCE2FF"></path> <path d="M155.292 322.794C173.493 313.512 191.309 303.724 208.852 293.376C212.272 291.295 209.544 285.696 206.124 287.777C188.581 298.125 170.653 307.967 152.564 317.195C148.923 319.107 151.651 324.706 155.292 322.794Z" fill="#BCE2FF"></path> <path d="M149.48 308.306C167.288 299.354 184.823 289.842 201.973 279.824C205.447 277.854 202.719 272.255 199.245 274.225C181.983 284.297 164.56 293.755 146.753 302.707C143.17 304.453 145.897 310.052 149.48 308.306Z" fill="#BCE2FF"></path> <path d="M149.087 292.425C163.197 285.552 177.03 278.397 190.867 270.963C194.396 269.106 191.668 263.507 188.139 265.364C174.303 272.798 160.469 279.953 146.36 286.826C142.776 288.572 145.504 294.171 149.087 292.425Z" fill="#BCE2FF"></path> <path d="M152.884 275.474C161.503 271.552 169.793 267.236 178.03 262.53C181.505 260.561 178.777 254.962 175.303 256.932C167.065 261.637 158.776 265.953 150.156 269.875C146.407 271.563 149.134 277.162 152.884 275.474Z" fill="#BCE2FF"></path> <path d="M160.119 259.894C162.643 258.249 165.442 256.885 168.239 255.8C171.986 254.39 169.258 248.791 165.511 250.201C162.715 251.286 159.915 252.65 157.391 254.295C155.99 255.116 155.137 256.779 155.956 258.459C156.61 259.802 158.718 260.715 160.119 259.894Z" fill="#BCE2FF"></path> <path d="M147.88 231.357C149.169 230.591 150.458 229.824 151.86 229.003C153.261 228.182 154.171 226.353 153.295 224.84C152.474 223.439 150.645 222.528 149.132 223.404C147.843 224.171 146.554 224.937 145.152 225.758C143.751 226.58 142.841 228.409 143.717 229.922C144.538 231.323 146.421 232.345 147.88 231.357Z" fill="#BCE2FF"></path> <path d="M136.676 226.562C141.945 223.441 147.268 220.432 152.591 217.423C156.12 215.565 153.393 209.966 149.864 211.824C144.486 214.721 139.163 217.73 133.948 220.963C130.529 223.045 133.256 228.644 136.676 226.562Z" fill="#BCE2FF"></path> <path d="M126.059 218.987C134.853 214.287 143.76 209.533 152.609 204.945C156.138 203.087 153.41 197.488 149.882 199.346C141.087 204.046 132.18 208.8 123.331 213.388C119.802 215.246 122.53 220.845 126.059 218.987Z" fill="#BCE2FF"></path> <path d="M114.723 210.793C127.77 204.298 140.598 197.356 153.485 190.247C156.959 188.277 154.231 182.678 150.757 184.648C138.037 191.814 125.154 198.645 111.995 205.194C108.412 206.94 111.139 212.538 114.723 210.793Z" fill="#BCE2FF"></path> <path d="M103.999 202.716C119.8 193.91 135.764 185.44 151.783 177.082C155.311 175.225 152.584 169.626 149.055 171.483C133.036 179.841 117.127 188.423 101.272 197.117C97.7428 198.975 100.47 204.574 103.999 202.716Z" fill="#BCE2FF"></path> <path d="M95.9877 190.823C112.799 181.248 129.828 172.121 147.021 163.329C150.55 161.471 147.822 155.872 144.294 157.73C127.101 166.522 110.071 175.649 93.2601 185.224C89.7859 187.194 92.4015 192.848 95.9877 190.823Z" fill="#BCE2FF"></path> <path d="M608.667 304.502C613.663 306.225 619.521 307.776 623.311 303.124C626.93 298.817 625.551 293.303 621.589 289.857C614.697 283.999 602.292 281.07 593.849 278.141C582.823 274.179 571.623 270.733 560.597 266.77C554.394 264.53 545.952 261.601 540.955 267.632C538.026 271.25 538.199 275.557 541.645 278.658C544.746 281.415 550.259 282.793 553.877 284.172C559.563 286.411 565.249 288.651 570.934 290.891C583.512 295.715 596.089 300.195 608.667 304.502C610.734 305.191 611.596 301.918 609.528 301.229C597.467 297.094 585.407 292.786 573.519 288.134C567.833 285.895 562.147 283.655 556.462 281.415C554.222 280.554 546.641 278.314 545.435 276.763C545.263 268.838 547.502 265.736 552.499 267.632C554.567 267.976 556.462 268.493 558.357 269.354C569.039 272.8 579.549 276.591 590.059 280.209C595.745 282.276 601.602 284.344 607.288 286.584C609.183 287.273 617.453 289.685 618.143 291.58C616.764 295.198 615.214 298.644 613.835 302.262C612.457 301.918 611.079 301.573 609.7 301.056C607.46 300.54 606.599 303.813 608.667 304.502Z" fill="#BCE2FF"></path> <path d="M548.536 281.415C539.577 305.364 529.929 328.968 520.108 352.572C515.456 363.943 510.632 375.142 505.98 386.514C500.467 399.78 495.815 413.391 485.649 423.729C468.592 441.131 448.09 455.603 429.482 471.454C421.384 478.518 395.712 495.058 412.08 506.43C421.04 512.632 432.239 516.595 441.887 521.074C452.741 526.071 463.768 530.895 474.795 535.547C497.538 545.195 520.797 553.982 544.057 562.08C550.087 564.148 558.185 568.11 564.732 564.837C571.796 561.391 571.107 552.432 570.934 545.885C570.073 520.558 568.522 495.058 566.455 469.731C565.249 454.914 562.837 439.924 566.627 425.28C570.073 411.841 576.103 399.091 581.1 386.169C591.782 358.774 602.464 331.38 613.146 303.813C614.008 301.745 610.562 300.884 609.873 302.951C601.258 325.177 592.643 347.231 584.029 369.457C576.448 388.926 565.421 409.601 562.148 430.448C558.702 451.64 563.698 474.9 565.076 496.092C565.766 507.119 566.455 518.145 566.972 529.172C567.144 534.686 567.489 540.199 567.661 545.712C567.661 548.297 568.178 551.053 567.661 553.466C566.11 561.563 560.08 562.942 553.533 561.219C532.685 555.705 512.183 546.746 492.369 538.648C471.005 530.034 449.985 520.73 429.31 510.737C425.175 508.842 419.317 506.946 415.871 504.017C406.222 496.437 414.665 489.028 420.006 484.204C428.793 476.278 437.752 468.525 446.883 460.944C462.562 447.85 482.031 435.273 494.092 418.732C500.467 410.118 504.085 399.78 508.047 389.959C512.872 378.588 517.524 367.389 522.176 356.018C532.513 331.38 542.506 306.742 551.81 281.759C552.671 280.209 549.398 279.347 548.536 281.415Z" fill="#BCE2FF"></path> <path d="M505.291 395.473C515.457 398.919 525.794 402.365 535.959 405.81C545.78 409.084 557.152 411.496 566.111 416.837C568.006 418.043 569.729 414.942 567.834 413.908C559.391 408.912 549.398 406.672 540.094 403.571C528.723 399.78 517.524 395.99 506.153 392.199C504.085 391.51 503.224 394.784 505.291 395.473Z" fill="#BCE2FF"></path> <path d="M543.884 304.158C549.914 306.57 555.944 308.982 561.974 311.394C564.042 312.256 564.903 308.81 562.836 308.121C556.806 305.709 550.775 303.296 544.745 300.884C542.678 300.023 541.816 303.296 543.884 304.158Z" fill="#BCE2FF"></path> <path d="M539.922 315.184C545.952 316.563 551.638 318.63 556.979 321.559C558.874 322.593 560.77 319.664 558.702 318.63C553.016 315.701 546.986 313.461 540.784 311.911C538.716 311.394 537.682 314.667 539.922 315.184Z" fill="#BCE2FF"></path> <path d="M534.408 327.245C540.094 329.657 545.952 331.552 551.982 332.586C554.222 332.931 555.083 329.657 552.843 329.313C546.985 328.279 541.472 326.556 536.131 324.316C534.063 323.455 532.34 326.384 534.408 327.245Z" fill="#BCE2FF"></path> <path d="M528.55 341.89C533.546 343.441 538.715 345.163 543.712 346.714C545.779 347.403 546.813 344.13 544.573 343.441C539.577 341.89 534.408 340.167 529.411 338.616C527.516 337.755 526.482 341.201 528.55 341.89Z" fill="#BCE2FF"></path> <path d="M523.554 355.846C528.378 357.741 533.03 359.809 537.855 361.704C539.922 362.565 540.784 359.292 538.716 358.43C533.892 356.535 529.24 354.468 524.416 352.572C522.521 351.711 521.487 354.984 523.554 355.846Z" fill="#BCE2FF"></path> <path d="M517.695 367.734C522.692 369.801 527.688 371.869 532.857 373.936C534.924 374.798 535.786 371.524 533.718 370.663C528.722 368.595 523.725 366.528 518.557 364.46C516.489 363.599 515.628 366.872 517.695 367.734Z" fill="#BCE2FF"></path> <path d="M512.527 382.206C517.695 384.101 522.692 386.169 527.861 388.064C529.928 388.926 530.79 385.48 528.722 384.791C523.553 382.895 518.557 380.828 513.388 378.933C511.321 378.071 510.459 381.345 512.527 382.206Z" fill="#BCE2FF"></path> <path d="M472.727 499.193C487.717 482.653 501.672 465.252 514.422 447.161C518.902 440.786 508.564 434.928 504.084 441.131C494.608 453.708 484.615 465.769 473.933 477.312C477.207 479.207 480.653 481.275 483.926 483.17C487.544 468.353 498.743 457.154 504.946 443.543C510.976 430.621 513.733 416.837 513.561 402.537C510.976 404.432 508.392 406.328 505.98 408.395C523.209 414.598 540.266 420.628 557.495 426.83C556.117 424.418 554.739 421.834 553.36 419.422C549.225 440.097 547.33 461.117 548.019 482.309C548.191 490.062 560.08 490.062 560.08 482.309C559.907 461.289 556.289 440.786 549.225 420.972C547.502 415.976 538.543 414.425 537.682 420.972C535.442 436.307 533.891 451.641 533.03 466.975C532.513 474.728 544.401 474.556 545.09 466.975C546.641 451.124 545.779 435.617 542.85 420.111C541.817 414.253 532.513 414.425 531.307 420.111C528.205 433.378 526.482 446.989 526.138 460.6C530.101 460.083 534.063 459.566 538.026 459.049C534.236 446.3 531.996 433.378 531.307 420.111C530.79 412.358 519.935 412.358 519.246 420.111C518.385 430.276 516.49 440.269 513.905 450.262C517.868 450.779 521.831 451.296 525.793 451.813C526.655 436.996 524.932 422.351 520.625 408.05C518.557 401.159 509.598 403.054 508.736 409.601C507.013 425.624 504.084 441.475 500.466 457.154C504.257 457.154 508.219 457.154 512.01 457.154C509.253 442.509 508.564 427.692 509.77 412.702C510.287 406.844 500.983 404.26 498.571 409.601C490.473 427.175 476.001 439.408 461.356 451.468C444.299 465.424 427.414 479.38 410.357 493.336C405.188 497.643 412.08 506.774 417.593 502.812C445.849 482.826 474.105 462.84 502.361 443.026C499.949 439.925 497.537 436.651 495.125 433.55C473.416 456.982 448.951 477.312 421.728 494.025C418.11 496.264 417.593 502.295 421.728 504.362C440.853 514.528 461.011 522.281 482.031 527.45C489.784 529.345 492.196 518.663 485.304 515.906C468.764 509.186 477.724 486.099 482.375 474.728C484.96 468.353 474.45 464.046 471.349 470.076C466.869 478.863 462.217 487.65 457.738 496.437C461.356 497.987 465.146 499.538 468.764 501.089C471.693 492.646 470.487 483.859 464.974 476.795C462.217 473.177 454.981 472.488 453.947 478.174C452.741 484.549 450.846 490.579 448.261 496.609C451.018 495.92 453.775 495.231 456.532 494.369C453.43 492.646 450.329 491.096 447.055 489.373C440.681 486.099 435.512 493.68 439.819 498.849C442.92 502.639 446.194 504.707 450.674 506.258C451.19 502.295 451.707 498.332 452.224 494.369C443.954 493.852 435.856 492.991 427.759 491.785C421.211 490.751 417.076 498.849 423.107 502.812C445.505 517.112 469.281 528.828 494.091 538.304C500.466 540.716 504.946 530.206 498.743 527.277C488.233 522.281 477.724 517.457 467.214 512.46C465.663 516.078 464.112 519.869 462.562 523.487C469.97 525.21 477.379 526.933 484.615 528.483C489.44 529.517 494.436 524.176 491.507 519.696C482.72 506.258 479.446 491.268 481.342 475.245C477.379 475.762 473.416 476.278 469.454 476.795C473.589 492.991 477.551 509.186 481.686 525.382C483.065 531.068 492.024 531.24 493.23 525.382C496.848 509.359 499.088 493.163 499.777 476.795C495.814 476.795 491.679 476.795 487.717 476.795C488.75 495.058 489.956 513.322 490.99 531.585C491.335 537.959 501.5 540.199 502.878 533.135C506.496 512.805 509.425 492.302 511.493 471.627C507.53 471.627 503.395 471.627 499.432 471.627C500.811 490.923 502.017 510.22 503.395 529.517C503.912 537.27 515.283 537.27 515.456 529.517C516.317 502.122 517.179 474.9 518.04 447.506C514.077 447.506 509.942 447.506 505.98 447.506C509.598 476.106 513.216 504.707 516.834 533.135C517.868 540.544 529.239 541.061 528.895 533.135C527.861 506.258 526.655 479.552 525.621 452.674C521.658 453.191 517.696 453.708 513.733 454.225C521.486 485.755 529.412 517.284 537.165 548.814C538.715 555.361 549.397 554.155 549.053 547.263C547.502 519.352 545.952 491.613 544.401 463.701C540.611 464.735 536.992 465.769 533.202 466.802C538.198 478.174 539.577 490.923 541.644 502.984C543.712 515.561 545.779 528.139 547.847 540.716C548.881 547.436 559.907 545.885 559.735 539.165C559.218 513.494 558.701 487.822 558.184 461.978C558.012 454.225 545.952 454.225 546.124 461.978C546.641 487.65 547.158 513.322 547.675 539.165C551.637 538.649 555.6 538.132 559.563 537.615C555.428 512.288 554.049 484.376 543.712 460.772C541.3 455.259 532.168 458.015 532.513 463.873C534.063 491.785 535.614 519.524 537.165 547.436C541.127 546.919 545.09 546.402 549.053 545.885C541.3 514.355 533.374 482.826 525.621 451.296C524.07 444.749 513.561 446.127 513.733 452.847C514.767 479.724 515.973 506.43 517.006 533.308C520.969 533.308 525.104 533.308 529.067 533.308C525.449 504.707 521.831 476.106 518.212 447.678C517.179 440.269 506.324 439.752 506.152 447.678C505.29 475.072 504.429 502.295 503.568 529.689C507.53 529.689 511.665 529.689 515.628 529.689C514.25 510.393 513.044 491.096 511.665 471.799C511.148 464.046 500.294 464.046 499.605 471.799C497.71 491.268 494.953 510.737 491.507 530.034C495.47 530.551 499.433 531.068 503.395 531.585C502.361 513.322 501.155 495.058 500.122 476.795C499.605 469.042 488.406 469.042 488.061 476.795C487.372 492.129 485.304 507.119 482.031 522.108C485.821 522.108 489.784 522.108 493.575 522.108C489.439 505.913 485.477 489.717 481.342 473.522C479.619 466.458 470.315 468.698 469.454 475.072C467.386 492.819 471.521 510.565 481.342 525.554C483.582 522.625 485.821 519.696 488.233 516.767C480.825 515.044 473.416 513.322 466.18 511.771C459.805 510.393 454.981 519.696 461.528 522.798C472.038 527.794 482.548 532.618 493.058 537.615C494.608 533.997 496.159 530.206 497.71 526.588C473.933 517.629 451.19 506.085 429.654 492.302C428.103 495.92 426.553 499.71 425.002 503.329C434.133 504.707 443.437 505.741 452.741 506.43C459.977 506.947 460.494 496.781 454.292 494.542C451.88 493.852 449.984 492.302 448.778 490.234C446.366 493.336 443.954 496.609 441.542 499.71C444.643 501.433 447.745 502.984 451.018 504.707C453.603 506.085 457.91 505.568 459.288 502.467C462.389 495.575 464.802 488.684 466.18 481.103C462.562 481.62 458.771 482.136 455.153 482.481C458.771 487.305 459.633 491.785 457.738 497.471C455.498 503.845 465.663 508.153 468.764 502.122C473.244 493.336 477.896 484.549 482.375 475.762C478.757 474.211 474.967 472.66 471.349 471.11C463.423 490.579 458.599 517.284 482.72 527.105C483.754 523.315 484.788 519.352 485.994 515.561C466.008 510.565 446.711 503.329 428.448 493.68C428.448 497.126 428.448 500.572 428.448 504.018C456.359 486.616 481.859 465.769 504.257 441.648C508.736 436.823 502.878 428.036 497.02 432.171C468.764 452.157 440.508 472.143 412.252 491.957C414.664 495.058 417.076 498.332 419.489 501.433C437.235 486.788 454.981 472.316 472.555 457.671C487.2 445.61 501.5 432.688 509.598 415.114C505.807 414.081 502.189 413.047 498.399 412.013C497.02 428.036 498.054 443.887 500.983 459.566C502.189 465.424 511.321 465.079 512.527 459.566C516.49 442.854 519.418 425.969 521.314 408.912C517.351 409.429 513.388 409.946 509.426 410.463C513.388 423.729 514.939 437.168 514.077 450.951C513.733 457.843 524.243 459.049 525.966 452.502C528.895 441.475 530.618 430.449 531.651 419.077C527.689 419.077 523.554 419.077 519.591 419.077C520.452 433.378 522.692 447.506 526.827 461.289C528.722 467.836 538.543 466.458 538.715 459.738C539.06 447.161 540.611 434.756 543.54 422.523C539.749 422.523 535.786 422.523 531.996 422.523C534.753 436.996 535.269 451.468 533.891 466.113C537.854 466.113 541.989 466.113 545.952 466.113C546.813 451.813 548.191 437.513 550.259 423.212C546.296 423.212 542.506 423.212 538.715 423.212C545.435 441.992 549.053 461.289 549.225 481.275C553.188 481.275 557.323 481.275 561.286 481.275C560.597 461.117 562.319 441.303 566.282 421.489C566.971 418.043 565.248 415.287 562.147 414.081C544.918 407.878 527.861 401.848 510.632 395.645C506.841 394.267 503.051 397.713 503.051 401.503C503.051 416.493 499.605 430.965 492.024 444.06C485.304 455.603 477.034 465.596 473.761 478.863C472.382 484.549 479.619 489.373 483.754 484.721C495.125 472.488 505.807 459.566 515.8 446.127C512.354 444.06 508.909 441.992 505.463 440.097C493.23 457.499 479.963 474.039 465.491 489.717C458.944 496.264 467.558 504.879 472.727 499.193Z" fill="#BCE2FF"></path> <path d="M550.087 441.131C551.638 459.738 553.189 478.346 554.567 496.954C555.256 505.913 555.773 515.045 556.462 524.004C556.635 526.933 559.908 550.02 558.013 551.054C559.563 550.881 561.114 550.709 562.665 550.365C551.121 548.125 539.405 541.75 528.723 537.098C518.041 532.446 507.359 527.45 496.849 522.281C489.785 518.835 484.444 528.139 490.819 532.618C507.703 544.679 526.656 552.949 546.986 557.084C552.155 558.118 558.013 551.054 552.844 547.091C540.611 537.615 532.341 525.382 528.378 510.393C524.588 511.426 520.625 512.46 516.835 513.666C520.108 523.831 524.071 533.652 528.895 543.301C531.48 548.297 538.199 546.402 539.922 541.922C542.162 536.064 540.611 531.068 538.544 525.554C535.959 518.835 533.72 512.116 532.169 505.052C529.068 490.062 529.412 474.556 532.513 459.566C528.895 460.083 525.105 460.6 521.487 460.945C526.139 470.421 529.412 480.241 531.48 490.579C533.03 498.332 544.229 494.886 543.023 487.305C541.128 474.211 534.581 455.431 518.385 456.637C510.46 457.154 499.606 459.566 492.714 463.701C489.957 465.424 489.613 467.147 488.406 470.248C486.684 475.073 484.616 479.38 481.859 483.687C485.305 485.755 488.751 487.822 492.197 489.717C494.954 484.893 497.71 479.897 500.467 475.073C504.257 468.353 493.92 462.323 490.129 469.042C487.373 473.866 484.616 478.863 481.859 483.687C478.069 490.407 488.062 496.265 492.197 489.717C495.987 483.859 498.744 477.657 500.639 470.765C499.261 472.144 497.883 473.522 496.504 474.9C502.879 472.316 513.734 466.975 520.625 469.042C528.034 471.282 530.101 483.515 531.135 490.407C534.926 489.373 538.888 488.339 542.679 487.133C540.439 475.762 536.649 464.907 531.48 454.57C529.24 450.09 521.487 451.124 520.453 455.948C517.524 469.559 516.663 483.343 518.385 497.126C519.247 503.673 520.453 510.393 522.348 516.767C524.071 522.798 530.274 531.929 527.862 538.304C531.48 537.787 535.27 537.27 538.888 536.926C534.581 528.311 530.963 519.352 528.034 510.22C525.622 502.812 514.423 505.913 516.49 513.494C520.97 530.206 530.274 544.851 544.057 555.533C545.952 552.26 548.02 548.814 549.915 545.54C530.446 541.75 512.7 533.997 496.677 522.453C494.609 525.899 492.542 529.345 490.646 532.791C505.98 540.199 521.487 547.263 537.165 553.81C546.469 557.773 567.489 570.351 569.901 552.432C570.935 544.507 569.212 535.547 568.695 527.45C568.006 517.801 567.489 508.325 566.8 498.677C565.421 479.552 563.871 460.255 562.148 441.131C561.459 433.378 549.398 433.378 550.087 441.131Z" fill="#BCE2FF"></path> <path d="M597.812 309.499C600.914 311.566 604.187 312.945 607.633 313.978C608.667 314.323 609.184 312.6 608.15 312.255C604.704 311.394 601.603 309.843 598.674 307.948C597.812 307.259 596.951 308.81 597.812 309.499Z" fill="#BCE2FF"></path> <path d="M596.262 315.012C599.191 316.563 602.12 317.941 605.049 319.492C606.082 320.008 606.944 318.458 605.91 317.941C602.981 316.39 600.052 315.012 597.123 313.461C596.089 313.117 595.228 314.495 596.262 315.012Z" fill="#BCE2FF"></path> <path d="M594.367 321.215C596.951 322.421 599.708 323.454 602.293 324.66C603.326 325.177 604.188 323.627 603.154 323.11C600.57 321.904 597.813 320.87 595.229 319.664C594.195 319.319 593.333 320.87 594.367 321.215Z" fill="#BCE2FF"></path> <path d="M591.954 326.556C594.883 327.589 597.812 328.451 600.741 329.485C601.775 329.829 602.292 328.106 601.258 327.762C598.329 326.728 595.4 325.866 592.471 324.833C591.437 324.66 590.92 326.211 591.954 326.556Z" fill="#BCE2FF"></path> <path d="M591.955 332.414C594.195 332.931 596.09 333.964 597.985 335.17C598.847 335.86 599.708 334.309 598.847 333.62C596.951 332.241 594.712 331.208 592.472 330.691C591.266 330.346 590.921 332.069 591.955 332.414Z" fill="#BCE2FF"></path> <path d="M590.232 336.893C592.472 337.582 594.711 338.444 596.779 339.478C597.813 339.995 598.674 338.444 597.64 337.927C595.401 336.893 592.988 336.032 590.749 335.17C589.543 334.826 589.198 336.549 590.232 336.893Z" fill="#BCE2FF"></path> <path d="M589.37 342.923C591.437 343.44 593.505 344.13 595.4 345.336C596.434 345.852 597.295 344.302 596.261 343.785C594.194 342.751 592.126 341.89 589.886 341.201C588.68 341.028 588.164 342.751 589.37 342.923Z" fill="#BCE2FF"></path> <path d="M584.718 347.231C587.13 348.609 589.714 349.815 592.126 351.194C593.16 351.71 594.021 350.16 592.988 349.643C590.576 348.265 587.991 347.059 585.579 345.68C584.545 345.163 583.684 346.714 584.718 347.231Z" fill="#BCE2FF"></path> <path d="M586.613 355.501C587.647 355.674 588.509 356.19 589.37 357.052C590.059 357.913 591.265 356.707 590.576 355.846C589.715 354.812 588.509 354.123 587.13 353.951C586.096 353.606 585.58 355.329 586.613 355.501Z" fill="#BCE2FF"></path> <path d="M581.271 359.808C583.511 360.842 585.751 361.703 587.819 362.737C588.852 363.254 589.714 361.703 588.68 361.187C586.44 360.153 584.2 359.291 582.133 358.258C581.099 357.913 580.238 359.464 581.271 359.808Z" fill="#BCE2FF"></path> <path d="M577.138 365.322C579.55 366.7 582.134 368.251 584.546 369.629C585.58 370.146 586.441 368.768 585.408 368.078C582.996 366.7 580.411 365.149 577.999 363.771C577.138 363.254 576.276 364.633 577.138 365.322Z" fill="#BCE2FF"></path> <path d="M574.897 373.075C577.309 373.936 579.549 375.142 581.789 376.521C582.65 377.038 583.684 375.659 582.65 374.97C580.411 373.592 577.999 372.386 575.414 371.352C574.208 371.007 573.864 372.73 574.897 373.075Z" fill="#BCE2FF"></path> <path d="M572.485 379.105C574.725 380.655 577.137 382.034 579.376 383.584C580.238 384.101 581.099 382.723 580.238 382.034C577.998 380.483 575.586 379.105 573.346 377.554C572.485 377.037 571.623 378.588 572.485 379.105Z" fill="#BCE2FF"></path> <path d="M570.074 386.858C572.313 387.72 574.381 388.926 576.448 390.476C577.31 391.166 578.516 389.96 577.654 389.27C575.415 387.547 573.175 386.169 570.59 385.308C569.384 384.791 569.04 386.341 570.074 386.858Z" fill="#BCE2FF"></path> <path d="M566.801 392.372C569.385 393.578 571.969 394.784 574.382 396.162C575.415 396.679 576.277 395.301 575.243 394.612C572.831 393.233 570.247 391.855 567.662 390.821C566.628 390.477 565.767 391.855 566.801 392.372Z" fill="#BCE2FF"></path> <path d="M568.006 399.263C570.074 400.469 572.141 401.676 574.209 402.882C575.243 403.398 576.104 402.02 575.07 401.331C573.003 400.125 570.935 398.919 568.868 397.713C568.006 397.368 567.145 398.747 568.006 399.263Z" fill="#BCE2FF"></path> <path d="M549.57 388.409C550.776 388.926 551.982 389.615 553.016 390.132C554.05 390.649 554.911 389.098 553.878 388.581C552.672 388.064 551.466 387.375 550.432 386.858C549.57 386.514 548.537 387.892 549.57 388.409Z" fill="#BCE2FF"></path> <path d="M560.424 366.183C561.113 366.528 561.802 366.7 562.664 367.045C563.698 367.389 564.215 365.839 563.181 365.322C562.492 364.977 561.802 364.805 560.941 364.46C559.735 363.943 559.39 365.666 560.424 366.183Z" fill="#BCE2FF"></path> <path d="M556.635 348.781C558.013 349.298 559.219 349.987 560.597 350.504C561.631 351.021 562.493 349.471 561.459 348.954C560.08 348.437 558.874 347.748 557.496 347.231C556.462 346.886 555.601 348.437 556.635 348.781Z" fill="#BCE2FF"></path> <path d="M573.691 348.092C574.725 348.092 574.725 346.369 573.691 346.369C572.658 346.369 572.658 348.092 573.691 348.092Z" fill="#BCE2FF"></path> <path d="M566.455 331.38C567.833 331.897 569.039 332.241 570.418 332.758C571.452 333.103 571.968 331.38 570.935 331.035C569.556 330.518 568.35 330.174 566.972 329.657C565.938 329.485 565.421 331.035 566.455 331.38Z" fill="#BCE2FF"></path> <path d="M581.616 326.039C582.65 326.556 583.684 327.245 584.717 327.762C585.751 328.279 586.613 326.901 585.579 326.212C584.545 325.695 583.511 325.006 582.478 324.489C581.616 323.972 580.755 325.523 581.616 326.039Z" fill="#BCE2FF"></path> <path d="M578.687 313.806C579.204 314.323 579.893 314.668 580.41 315.185C581.271 315.874 582.133 314.323 581.271 313.634C580.754 313.117 580.065 312.773 579.548 312.256C578.687 311.566 577.825 313.117 578.687 313.806Z" fill="#BCE2FF"></path> <path d="M563.697 300.54C564.731 301.057 565.765 301.401 566.798 301.918C567.832 302.435 568.694 300.884 567.66 300.367C566.626 299.851 565.592 299.506 564.559 298.989C563.525 298.644 562.663 300.195 563.697 300.54Z" fill="#BCE2FF"></path> <path d="M585.58 307.259C586.614 307.259 586.614 305.536 585.58 305.536C584.547 305.536 584.547 307.259 585.58 307.259Z" fill="#BCE2FF"></path> <path d="M553.017 274.006C574.036 281.243 594.884 289.34 615.387 298.127C616.42 298.644 617.282 297.094 616.248 296.577C595.573 287.617 574.726 279.52 553.534 272.283C552.5 272.111 551.983 273.662 553.017 274.006Z" fill="#BCE2FF"></path> <path d="M546.297 266.253C547.331 271.077 548.364 275.902 549.398 280.898C549.57 281.932 551.293 281.587 551.121 280.381C550.087 275.557 549.053 270.733 548.02 265.736C547.847 264.703 546.124 265.219 546.297 266.253Z" fill="#BCE2FF"></path> <path d="M551.121 267.632C552.499 272.973 553.705 278.314 555.084 283.655C555.428 284.689 556.979 284.344 556.806 283.138C555.428 277.797 554.222 272.456 552.844 267.115C552.499 266.081 550.948 266.598 551.121 267.632Z" fill="#BCE2FF"></path> <path d="M557.15 268.321C557.839 274.006 559.046 279.52 560.941 285.033C561.285 286.067 563.008 285.55 562.664 284.516C560.941 279.175 559.562 273.834 558.873 268.321C558.701 267.287 556.978 267.287 557.15 268.321Z" fill="#BCE2FF"></path> <path d="M561.803 269.354C562.492 275.04 563.698 280.553 565.421 286.067C565.765 287.101 567.488 286.756 567.144 285.55C565.421 280.209 564.215 274.868 563.526 269.354C563.353 268.321 561.63 268.321 561.803 269.354Z" fill="#BCE2FF"></path> <path d="M566.971 271.422C568.005 276.419 569.211 281.415 570.589 286.412C570.934 287.445 572.484 287.101 572.312 285.895C570.934 280.898 569.728 275.902 568.694 270.905C568.349 269.872 566.799 270.388 566.971 271.422Z" fill="#BCE2FF"></path> <path d="M571.796 272.801C573.002 277.969 574.208 283.138 575.414 288.307C575.586 289.341 577.309 288.996 577.137 287.79C575.931 282.621 574.725 277.452 573.519 272.284C573.174 271.25 571.624 271.767 571.796 272.801Z" fill="#BCE2FF"></path> <path d="M577.654 275.557C579.032 281.759 580.411 287.79 581.961 293.992C582.134 295.026 583.856 294.681 583.684 293.475C582.306 287.273 580.928 281.243 579.377 275.04C579.032 274.006 577.482 274.523 577.654 275.557Z" fill="#BCE2FF"></path> <path d="M582.823 277.108C584.201 283.138 585.58 289.341 586.958 295.371C587.13 296.405 588.853 296.06 588.681 294.854C587.303 288.824 585.924 282.621 584.546 276.591C584.374 275.557 582.651 276.074 582.823 277.108Z" fill="#BCE2FF"></path> <path d="M587.991 278.486C589.37 284.688 590.748 291.063 592.126 297.266C592.299 298.299 594.022 297.955 593.849 296.749C592.471 290.546 591.093 284.171 589.714 277.969C589.37 276.935 587.819 277.452 587.991 278.486Z" fill="#BCE2FF"></path> <path d="M593.332 280.381C594.538 286.411 595.744 292.614 596.778 298.644C596.95 299.678 598.673 299.333 598.501 298.127C597.295 292.097 596.089 285.894 595.055 279.864C594.883 278.83 593.16 279.175 593.332 280.381Z" fill="#BCE2FF"></path> <path d="M598.329 282.621C599.19 288.652 600.224 294.51 601.43 300.54C601.602 301.574 603.325 301.229 603.153 300.023C601.947 294.165 600.913 288.135 600.052 282.105C599.879 281.071 598.329 281.588 598.329 282.621Z" fill="#BCE2FF"></path> <path d="M603.498 284.344C604.188 290.202 605.394 296.06 606.944 301.918C607.289 302.952 608.84 302.607 608.667 301.401C607.117 295.716 606.083 290.03 605.221 284.344C605.049 283.31 603.326 283.31 603.498 284.344Z" fill="#BCE2FF"></path> <path d="M607.633 286.067C608.839 291.925 609.873 297.611 611.079 303.469C611.251 304.502 612.974 304.158 612.802 302.952C611.596 297.094 610.562 291.408 609.356 285.55C609.011 284.516 607.461 284.861 607.633 286.067Z" fill="#BCE2FF"></path> <path d="M614.18 287.101C614.869 292.614 615.731 298.128 616.937 303.641C617.109 304.675 618.832 304.33 618.66 303.124C617.454 297.783 616.592 292.442 615.903 287.101C615.731 286.067 614.008 286.067 614.18 287.101Z" fill="#BCE2FF"></path> <path d="M618.487 290.891C618.659 295.026 619.176 299.161 620.037 303.296C620.21 304.33 621.933 303.985 621.76 302.779C620.899 298.817 620.382 294.854 620.21 290.891C620.21 289.857 618.487 289.857 618.487 290.891Z" fill="#BCE2FF"></path> <path d="M542.162 269.182C542.851 272.628 543.713 275.902 544.919 279.003C545.264 280.037 546.986 279.52 546.642 278.486C545.436 275.212 544.574 271.939 543.885 268.665C543.541 267.632 541.99 267.976 542.162 269.182Z" fill="#BCE2FF"></path> </svg> 