<?xml version="1.0" encoding="UTF-8"?> <svg xmlns="http://www.w3.org/2000/svg" width="203" height="72" viewBox="0 0 203 72" fill="none"> <rect x="0.881836" y="1.146" width="201.618" height="70.0468" rx="9.5" fill="white" stroke="#1398BE"></rect> <path fill-rule="evenodd" clip-rule="evenodd" d="M42.4631 42.5557C42.4631 46.3772 45.2916 49.3536 48.9436 49.3536C52.5955 49.3536 55.4419 46.3772 55.4419 42.5557C55.4419 38.826 52.5955 35.9414 48.9436 35.9414C45.2916 35.9414 42.4631 38.826 42.4631 42.5557ZM44.3249 42.5557C44.3249 39.7814 46.3836 37.6501 48.9436 37.6501C51.5035 37.6501 53.5801 39.7814 53.5801 42.5557C53.5801 45.4218 51.5035 47.6266 48.9436 47.6266C46.3836 47.6266 44.3249 45.4218 44.3249 42.5557ZM56.0148 49.1883C59.3445 49.2066 59.8099 44.4481 59.8099 42.0963V41.3614H61.8865C62.1372 41.3614 62.2804 41.4901 62.2804 41.7656V47.9573C62.2804 48.784 62.6205 49.1332 63.444 49.1332H65.1446V47.6082H64.4107C64.16 47.6082 64.0168 47.4796 64.0168 47.204V41.0124C64.0168 40.1856 63.6767 39.8365 62.8711 39.8365H57.0173V41.3614H58.1451V42.078C58.1451 44.3378 57.6438 47.5715 56.0148 47.6082V49.1883ZM66.1292 44.4848C66.1292 47.2407 68.0984 49.3536 70.9448 49.3536C72.1979 49.3536 73.5764 48.8575 74.4535 48.0308L73.7196 46.7263C73.0035 47.3694 72.0189 47.8103 71.0522 47.8103C69.4231 47.8103 68.0268 46.6896 67.9194 44.6686H74.5252C74.561 44.4297 74.5789 44.1909 74.5789 43.9704C74.5789 41.5635 73.2362 39.616 70.6763 39.616C68.0984 39.616 66.1292 41.5268 66.1292 44.4848ZM67.991 43.4927C68.2416 41.931 69.2978 41.0124 70.6405 41.0124C71.822 41.0124 72.7887 41.8575 72.8424 43.4927H67.991ZM76.7092 49.1332H78.4456V41.3614H80.8982C81.1488 41.3614 81.292 41.5084 81.292 41.7656V42.3903H82.742V40.9756C82.742 40.1305 82.4019 39.8365 81.5784 39.8365H75.5814V41.3614H76.7092V49.1332ZM89.6342 49.1332H91.4244V43.1803H92.4985C93.0176 43.1803 93.4115 43.2354 93.6263 43.658L95.8103 48.1594C96.2041 49.0045 96.5801 49.1332 97.5647 49.1332H98.5493V47.5531H98.2091C97.7795 47.5531 97.4931 47.5164 97.3141 47.1305L95.4165 43.2354C95.0584 42.5189 94.7004 42.4271 94.7004 42.4271V42.3903C94.7004 42.3903 95.0584 42.1882 95.4165 41.5452L98.4777 36.1619H96.4727L93.6621 41.1777C93.4473 41.5452 93.0892 41.6186 92.6238 41.6186H91.4244V37.3378C91.4244 36.511 91.0842 36.1619 90.2787 36.1619H88.4706V37.742H89.2404C89.491 37.742 89.6342 37.8706 89.6342 38.1462V49.1332ZM99.0684 44.4664C99.0684 47.2959 101.235 49.3536 103.938 49.3536C106.641 49.3536 108.825 47.2959 108.825 44.4664C108.825 41.6554 106.641 39.616 103.938 39.616C101.235 39.616 99.0684 41.6554 99.0684 44.4664ZM100.823 44.4664C100.823 42.5373 102.237 41.1593 103.938 41.1593C105.656 41.1593 107.053 42.5373 107.053 44.4664C107.053 46.414 105.656 47.8103 103.938 47.8103C102.237 47.8103 100.823 46.414 100.823 44.4664ZM110.937 52.8077H112.674V48.6738C112.674 48.1961 112.638 47.8654 112.638 47.8654H112.674C112.674 47.8654 113.444 49.3536 115.449 49.3536C117.829 49.3536 119.566 47.4428 119.566 44.4848C119.566 41.6003 118.026 39.616 115.574 39.616C113.318 39.616 112.566 41.2696 112.566 41.2696H112.531C112.531 41.2696 112.548 41.0491 112.548 40.7735C112.548 40.1856 112.244 39.8365 111.439 39.8365H109.809V41.3614H110.543C110.794 41.3614 110.937 41.4901 110.937 41.7656V52.8077ZM112.62 44.5216C112.62 42.1515 113.891 41.1777 115.234 41.1777C116.737 41.1777 117.794 42.4822 117.794 44.5032C117.794 46.6161 116.612 47.8287 115.198 47.8287C113.497 47.8287 112.62 46.1751 112.62 44.5216ZM120.765 44.4664C120.765 47.2959 122.931 49.3536 125.635 49.3536C128.338 49.3536 130.522 47.2959 130.522 44.4664C130.522 41.6554 128.338 39.616 125.635 39.616C122.931 39.616 120.765 41.6554 120.765 44.4664ZM122.52 44.4664C122.52 42.5373 123.934 41.1593 125.635 41.1593C127.353 41.1593 128.75 42.5373 128.75 44.4664C128.75 46.414 127.353 47.8103 125.635 47.8103C123.934 47.8103 122.52 46.414 122.52 44.4664ZM136.268 49.3536C138.792 49.3536 140.636 47.6449 140.636 44.9625C140.636 42.3352 139.025 40.6816 136.752 40.6816C135.588 40.6816 134.46 41.0491 133.601 42.4087H133.583C133.619 40.994 134.174 39.7997 135.713 39.12L137.844 38.1829C139.061 37.6869 139.705 37.3745 139.705 36.1619V35.3535H138.023V35.7945C138.023 36.2171 137.826 36.4008 136.984 36.7682L134.997 37.6685C132.563 38.7709 131.918 40.6265 131.918 43.658C131.918 46.7447 133.028 49.3536 136.268 49.3536ZM133.744 44.9625C133.744 43.3457 134.818 42.1698 136.34 42.1698C137.7 42.1698 138.846 43.1803 138.846 44.9992C138.846 46.7814 137.7 47.8287 136.304 47.8287C134.89 47.8287 133.744 46.7814 133.744 44.9625ZM141.889 44.4664C141.889 47.2959 144.055 49.3536 146.759 49.3536C149.462 49.3536 151.646 47.2959 151.646 44.4664C151.646 41.6554 149.462 39.616 146.759 39.616C144.055 39.616 141.889 41.6554 141.889 44.4664ZM143.644 44.4664C143.644 42.5373 145.058 41.1593 146.759 41.1593C148.477 41.1593 149.874 42.5373 149.874 44.4664C149.874 46.414 148.477 47.8103 146.759 47.8103C145.058 47.8103 143.644 46.414 143.644 44.4664ZM153.722 48.1226C153.722 48.8208 154.009 49.1332 154.725 49.1332H157.589C159.558 49.1332 160.919 48.2145 160.919 46.4875C160.919 45.4769 160.328 44.5399 159.2 44.2827V44.246C159.934 43.9336 160.471 43.2722 160.471 42.225C160.471 40.6633 159.29 39.8365 157.464 39.8365H152.595V41.3614H153.722V48.1226ZM155.459 43.7499V41.0859H157.106C158.162 41.0859 158.717 41.5452 158.717 42.3903C158.717 43.2171 158.18 43.7499 157.16 43.7499H155.459ZM155.459 47.498V44.9441H157.303C158.484 44.9441 159.147 45.4769 159.147 46.3956C159.147 47.2959 158.556 47.8654 157.303 47.8654H155.799C155.584 47.8654 155.459 47.7368 155.459 47.498Z" fill="#4A4A4A"></path> <path fill-rule="evenodd" clip-rule="evenodd" d="M103.773 30.8665H106.397V22.1414H107.971C108.732 22.1414 109.31 22.2222 109.624 22.8416L112.825 29.4392C113.403 30.678 113.954 30.8665 115.397 30.8665H116.84V28.5506H116.341C115.712 28.5506 115.292 28.4967 115.03 27.9312L112.248 22.2222C111.723 21.172 111.199 21.0373 111.199 21.0373V20.9835C111.199 20.9835 111.723 20.6873 112.248 19.7447L116.735 11.8545H113.796L109.677 19.2062C109.362 19.7447 108.837 19.8525 108.155 19.8525H106.397V13.578C106.397 12.3661 105.898 11.8545 104.718 11.8545H102.068V14.1704H103.196C103.563 14.1704 103.773 14.3589 103.773 14.7629V30.8665Z" fill="#1398BE"></path> <path fill-rule="evenodd" clip-rule="evenodd" d="M92.794 11.8545C97.9094 11.8545 102.056 16.1105 102.056 21.3605C102.056 26.6105 97.9094 30.8665 92.794 30.8665C87.6786 30.8665 83.5317 26.6105 83.5317 21.3605C83.5317 16.1105 87.6786 11.8545 92.794 11.8545ZM92.794 14.5199C96.4751 14.5199 99.4593 17.5825 99.4593 21.3605C99.4593 25.1385 96.4751 28.2011 92.794 28.2011C89.1129 28.2011 86.1288 25.1385 86.1288 21.3605C86.1288 17.5825 89.1129 14.5199 92.794 14.5199Z" fill="#1398BE"></path> <path fill-rule="evenodd" clip-rule="evenodd" d="M82.7883 20.5916V22.1289C82.7883 22.5517 82.4513 22.8975 82.0394 22.8975H82.0393C81.6274 22.8975 81.2905 22.5517 81.2905 22.1289V20.5916C81.2905 20.1688 81.6274 19.823 82.0393 19.823H82.0394C82.4513 19.823 82.7883 20.1688 82.7883 20.5916ZM80.7512 21.3602V21.3603C80.7512 22.4594 79.8751 23.3587 78.8041 23.3587H72.9024C71.8315 23.3587 70.9553 22.4594 70.9553 21.3603V21.3602C70.9553 20.2611 71.8315 19.3618 72.9024 19.3618H78.8041C79.8751 19.3618 80.7512 20.2611 80.7512 21.3602Z" fill="#1398BE"></path> <path fill-rule="evenodd" clip-rule="evenodd" d="M130.48 19.3619C131.555 19.3619 132.427 20.2566 132.427 21.3603C132.427 22.3332 131.75 23.1436 130.852 23.3221C131.063 23.5827 131.189 23.9174 131.189 24.2823C131.189 25.1143 130.532 25.7888 129.721 25.7888C129.592 25.7888 129.467 25.7716 129.347 25.7394C129.472 25.9418 129.544 26.1816 129.544 26.4388C129.544 27.1621 128.973 27.7485 128.268 27.7485C127.959 27.7485 127.676 27.6358 127.455 27.4482C127.458 27.4803 127.459 27.5127 127.459 27.5456C127.459 28.1399 126.99 28.6217 126.411 28.6217C126.061 28.6217 125.751 28.4456 125.561 28.1751C125.497 28.551 125.178 28.8369 124.793 28.8369C124.363 28.8369 124.014 28.479 124.014 28.0375C124.014 27.596 124.363 27.2381 124.793 27.2381C125.019 27.2381 125.222 27.3364 125.364 27.4933C125.39 26.9233 125.849 26.4695 126.411 26.4695C126.634 26.4695 126.841 26.5411 127.011 26.663C126.999 26.5901 126.992 26.5152 126.992 26.4388C126.992 25.7154 127.564 25.129 128.268 25.129C128.356 25.129 128.442 25.1382 128.525 25.1555C128.354 24.9092 128.253 24.6078 128.253 24.2823C128.253 23.6366 128.649 23.0858 129.206 22.8715C128.793 22.5051 128.533 21.964 128.533 21.3603C128.533 20.2566 129.404 19.3619 130.48 19.3619ZM126.101 13.8838C125.671 13.8838 125.322 14.2417 125.322 14.6831C125.322 15.1246 125.671 15.4825 126.101 15.4825C126.531 15.4825 126.88 15.1246 126.88 14.6831C126.88 14.2417 126.531 13.8838 126.101 13.8838ZM122.626 14.9721C121.921 14.9721 121.35 15.5585 121.35 16.2819C121.35 17.0052 121.921 17.5916 122.626 17.5916C123.331 17.5916 123.902 17.0052 123.902 16.2819C123.902 15.5585 123.331 14.9721 122.626 14.9721ZM127.711 21.6832H123.183C123.01 21.6832 122.868 21.5379 122.868 21.3603V21.3603V21.3603C122.868 21.1827 123.01 21.0375 123.183 21.0375H127.711C127.884 21.0375 128.026 21.1827 128.026 21.3603V21.3603V21.3603C128.026 21.5379 127.884 21.6832 127.711 21.6832ZM123.085 27.0427C123.2 27.0427 123.293 27.1386 123.293 27.257C123.293 27.3754 123.2 27.4714 123.085 27.4714C122.969 27.4714 122.876 27.3754 122.876 27.257C122.876 27.1386 122.969 27.0427 123.085 27.0427ZM123.082 26.0006L125.297 26.6753C125.381 26.7011 125.43 26.7932 125.405 26.8801V26.8801C125.38 26.967 125.29 27.0169 125.205 26.9911L122.99 26.3165C122.906 26.2907 122.857 26.1986 122.882 26.1117V26.1117C122.907 26.0248 122.997 25.9749 123.082 26.0006ZM123.144 24.6319L126.436 25.1712C126.561 25.1918 126.648 25.3142 126.628 25.4433V25.4434C126.608 25.5724 126.489 25.6612 126.363 25.6406L123.071 25.1013C122.945 25.0807 122.858 24.9583 122.879 24.8292V24.8292C122.899 24.7001 123.018 24.6113 123.144 24.6319ZM123.163 23.0558L127.76 23.4255C127.91 23.4376 128.023 23.5733 128.011 23.7271V23.7271C127.999 23.8809 127.867 23.9969 127.717 23.9848L123.12 23.6151C122.97 23.6031 122.857 23.4674 122.869 23.3136V23.3135C122.881 23.1597 123.013 23.0438 123.163 23.0558ZM120.414 19.3619C119.339 19.3619 118.467 20.2566 118.467 21.3603C118.467 22.464 119.339 23.3588 120.414 23.3588C121.49 23.3588 122.361 22.464 122.361 21.3603C122.361 20.2566 121.49 19.3619 120.414 19.3619Z" fill="#1398BE"></path> <path fill-rule="evenodd" clip-rule="evenodd" d="M71.7719 57.7383C71.7719 58.0449 71.6665 58.3064 71.4556 58.5228C71.2448 58.7391 70.99 58.8473 70.6913 58.8473C70.3927 58.8473 70.1357 58.7391 69.9205 58.5228C69.7096 58.3064 69.6042 58.0449 69.6042 57.7383C69.6042 57.4318 69.7096 57.1704 69.9205 56.954C70.1357 56.7331 70.3927 56.6226 70.6913 56.6226C70.99 56.6226 71.2448 56.7331 71.4556 56.954C71.6665 57.1704 71.7719 57.4318 71.7719 57.7383ZM76.8709 60.389H75.685V55.6557H77.7406C78.2589 55.6557 78.6674 55.7932 78.9661 56.0682C79.2691 56.3432 79.4207 56.6993 79.4207 57.1366C79.4207 57.5738 79.2691 57.9322 78.9661 58.2117C78.6674 58.4867 78.2589 58.6242 77.7406 58.6242H76.8709V60.389ZM76.8709 56.6835V57.6234H77.6549C77.8263 57.6234 77.9635 57.5817 78.0667 57.4983C78.1699 57.4149 78.2216 57.2988 78.2216 57.1501C78.2216 57.0013 78.171 56.8864 78.07 56.8052C77.969 56.7241 77.8306 56.6835 77.6549 56.6835H76.8709ZM85.0863 60.389H81.5285V55.6557H85.0336V56.7241H82.7144V57.3665H84.5592V58.3943H82.7144V59.3207H85.0863V60.389ZM88.4591 60.389H87.2731V55.6557H91.2658V60.389H90.0799V56.7241H88.4591V60.389ZM97.2213 60.389H93.6635V55.6557H97.1687V56.7241H94.8495V57.3665H96.6943V58.3943H94.8495V59.3207H97.2213V60.389ZM101.721 60.389H100.535V56.7241H99.1512V55.6557H103.111V56.7241H101.721V60.389ZM106.247 60.389H105.252V55.6557H106.438V58.3267L108.342 55.6557H109.37V60.389H108.184V57.6911L106.247 60.389ZM114.08 60.389H112.894V56.7241H111.51V55.6557H115.47V56.7241H114.08V60.389ZM118.698 58.9826C118.931 59.235 119.221 59.3612 119.568 59.3612C119.91 59.3612 120.198 59.235 120.431 58.9826C120.663 58.7301 120.78 58.41 120.78 58.0224C120.78 57.6347 120.663 57.3146 120.431 57.0622C120.198 56.8097 119.91 56.6835 119.568 56.6835C119.221 56.6835 118.931 56.8097 118.698 57.0622C118.469 57.3101 118.355 57.6302 118.355 58.0224C118.355 58.4145 118.469 58.7346 118.698 58.9826ZM121.307 59.767C120.846 60.2448 120.266 60.4837 119.568 60.4837C118.869 60.4837 118.289 60.2448 117.828 59.767C117.367 59.2891 117.136 58.7076 117.136 58.0224C117.136 57.3371 117.367 56.7556 117.828 56.2778C118.289 55.7999 118.869 55.561 119.568 55.561C120.266 55.561 120.846 55.7999 121.307 56.2778C121.768 56.7556 121.999 57.3371 121.999 58.0224C121.999 58.7076 121.768 59.2891 121.307 59.767ZM125.437 60.389H124.252V55.6557H126.307C126.825 55.6557 127.234 55.7932 127.533 56.0682C127.836 56.3432 127.987 56.6993 127.987 57.1366C127.987 57.5738 127.836 57.9322 127.533 58.2117C127.234 58.4867 126.825 58.6242 126.307 58.6242H125.437V60.389ZM125.437 56.6835V57.6234H126.221C126.393 57.6234 126.53 57.5817 126.633 57.4983C126.736 57.4149 126.788 57.2988 126.788 57.1501C126.788 57.0013 126.738 56.8864 126.637 56.8052C126.536 56.7241 126.397 56.6835 126.221 56.6835H125.437ZM133.778 57.7383C133.778 58.0449 133.673 58.3064 133.462 58.5228C133.251 58.7391 132.996 58.8473 132.698 58.8473C132.399 58.8473 132.142 58.7391 131.927 58.5228C131.716 58.3064 131.61 58.0449 131.61 57.7383C131.61 57.4318 131.716 57.1704 131.927 56.954C132.142 56.7331 132.399 56.6226 132.698 56.6226C132.996 56.6226 133.251 56.7331 133.462 56.954C133.673 57.1704 133.778 57.4318 133.778 57.7383Z" fill="#1398BE"></path> </svg> 